<svg xmlns="http://www.w3.org/2000/svg" width="217" height="36" viewBox="0 0 217 36">
  <g id="footer_logo" data-name="footer logo" transform="translate(-141 -3177.79)">
    <text id="EaseAccess" transform="translate(141 3207.79)" fill="#faf8f8" font-size="30" font-family="Tahoma-Bold, Tahoma" font-weight="700"><tspan x="0" y="0">EaseAccess</tspan></text>
    <g id="logo" transform="translate(65.156 3135.734)">
      <g id="Path_2" data-name="Path 2" transform="translate(257.056 51.606) rotate(-20)" fill="#35bcef">
        <path d="M 6.48191499710083 12.71383476257324 C 3.045624971389771 12.71383476257324 0.2500050067901611 9.918205261230469 0.2500050067901611 6.48191499710083 C 0.2500050067901611 3.045624971389771 3.045624971389771 0.2500050067901611 6.48191499710083 0.2500050067901611 C 9.918205261230469 0.2500050067901611 12.71383476257324 3.045624971389771 12.71383476257324 6.48191499710083 C 12.71383476257324 9.918205261230469 9.918205261230469 12.71383476257324 6.48191499710083 12.71383476257324 Z" stroke="none"/>
        <path d="M 6.48191499710083 0.499995231628418 C 3.183474540710449 0.499995231628418 0.499995231628418 3.183474540710449 0.499995231628418 6.48191499710083 C 0.499995231628418 9.780355453491211 3.183474540710449 12.46382522583008 6.48191499710083 12.46382522583008 C 9.780355453491211 12.46382522583008 12.46382522583008 9.780355453491211 12.46382522583008 6.48191499710083 C 12.46382522583008 3.183474540710449 9.780355453491211 0.499995231628418 6.48191499710083 0.499995231628418 M 6.48191499710083 -4.76837158203125e-06 C 10.06177520751953 -4.76837158203125e-06 12.96382522583008 2.902054786682129 12.96382522583008 6.48191499710083 C 12.96382522583008 10.06177520751953 10.06177520751953 12.96382522583008 6.48191499710083 12.96382522583008 C 2.902054786682129 12.96382522583008 -4.76837158203125e-06 10.06177520751953 -4.76837158203125e-06 6.48191499710083 C -4.76837158203125e-06 2.902054786682129 2.902054786682129 -4.76837158203125e-06 6.48191499710083 -4.76837158203125e-06 Z" stroke="none" fill="#707070"/>
      </g>
      <g id="Ellipse_1" data-name="Ellipse 1" transform="translate(271.112 46.49) rotate(-20)" fill="#75d9ff" stroke="#707070" stroke-width="0.5">
        <circle cx="6.482" cy="6.482" r="6.482" stroke="none"/>
        <circle cx="6.482" cy="6.482" r="6.232" fill="none"/>
      </g>
      <g id="Ellipse_1-2" data-name="Ellipse 1" transform="translate(262.172 65.662) rotate(-20)" fill="#75d9ff" stroke="#707070" stroke-width="0.5">
        <circle cx="6.482" cy="6.482" r="6.482" stroke="none"/>
        <circle cx="6.482" cy="6.482" r="6.232" fill="none"/>
      </g>
      <path id="Path_1" data-name="Path 1" d="M6.482,0A6.482,6.482,0,1,1,0,6.482,6.482,6.482,0,0,1,6.482,0Z" transform="translate(276.228 60.546) rotate(-20)" fill="#33f0d0"/>
    </g>
  </g>
</svg>
