<svg xmlns="http://www.w3.org/2000/svg" width="85.036" height="75.782" viewBox="0 0 85.036 75.782">
  <path id="iconfinder_07.Wallet_290143" d="M86.036,70.545h0a9.242,9.242,0,0,1-9.243,9.243H10.243A9.242,9.242,0,0,1,1,70.545V16.935A7.4,7.4,0,0,1,8.394,9.541H45.683L60.655,4.117A1.831,1.831,0,0,1,63,5.206l1.577,4.335h6.672a7.4,7.4,0,0,1,7.394,7.394v3.7h0a7.4,7.4,0,0,1,7.394,7.394ZM8.394,13.238h0a3.7,3.7,0,1,0,0,7.394h6.718c.024-.009.039-.03.063-.039l20.3-7.356Zm53.754.335L60.185,8.167h0L56.392,9.541H56.4L46.2,13.238h-.018L25.779,20.632H64.714Zm12.8,3.363a3.7,3.7,0,0,0-3.7-3.7h-5.33l2.688,7.394h6.339Zm3.7,7.394H8.394A7.312,7.312,0,0,1,4.7,23.3V70.545a5.547,5.547,0,0,0,5.546,5.546h66.55a5.546,5.546,0,0,0,5.546-5.546V57.6H74.945a7.394,7.394,0,0,1,0-14.789h7.394V28.027A3.7,3.7,0,0,0,78.642,24.33Zm3.7,29.578V46.513H74.945a3.7,3.7,0,1,0,0,7.394Zm-7.394-5.546h3.7v3.7h-3.7Z" transform="translate(-1 -4.006)" fill="#f8f5f5" fill-rule="evenodd"/>
</svg>
