<svg xmlns="http://www.w3.org/2000/svg" width="95.784" height="79.126" viewBox="0 0 95.784 79.126">
  <path id="iconfinder_46.Calendar_290104" d="M88.455,84.126H9.329A8.329,8.329,0,0,1,1,75.8V13.329A8.329,8.329,0,0,1,9.329,5H88.455a8.329,8.329,0,0,1,8.329,8.329V75.8A8.329,8.329,0,0,1,88.455,84.126Zm4.165-70.8a4.166,4.166,0,0,0-4.165-4.165H9.329a4.166,4.166,0,0,0-4.165,4.165V25.823H92.62Zm0,16.658H5.165V75.8a4.166,4.166,0,0,0,4.165,4.165H88.455A4.166,4.166,0,0,0,92.62,75.8ZM84.291,59.139H80.126a2.082,2.082,0,0,1-2.082-2.082V52.892a2.083,2.083,0,0,1,2.082-2.082h4.165a2.082,2.082,0,0,1,2.082,2.082v4.165A2.08,2.08,0,0,1,84.291,59.139Zm0-14.576H80.126a2.082,2.082,0,0,1-2.082-2.082V38.316a2.082,2.082,0,0,1,2.082-2.082h4.165a2.08,2.08,0,0,1,2.082,2.082v4.165A2.08,2.08,0,0,1,84.291,44.563ZM67.632,59.139H63.468a2.082,2.082,0,0,1-2.082-2.082V52.892a2.083,2.083,0,0,1,2.082-2.082h4.165a2.082,2.082,0,0,1,2.082,2.082v4.165A2.08,2.08,0,0,1,67.632,59.139Zm0-14.576H63.468a2.082,2.082,0,0,1-2.082-2.082V38.316a2.082,2.082,0,0,1,2.082-2.082h4.165a2.08,2.08,0,0,1,2.082,2.082v4.165A2.08,2.08,0,0,1,67.632,44.563ZM50.974,59.139H46.81a2.08,2.08,0,0,1-2.082-2.082V52.892A2.082,2.082,0,0,1,46.81,50.81h4.165a2.082,2.082,0,0,1,2.082,2.082v4.165A2.08,2.08,0,0,1,50.974,59.139Zm0-14.576H46.81a2.08,2.08,0,0,1-2.082-2.082V38.316a2.08,2.08,0,0,1,2.082-2.082h4.165a2.08,2.08,0,0,1,2.082,2.082v4.165A2.08,2.08,0,0,1,50.974,44.563ZM34.316,73.715H30.152a2.08,2.08,0,0,1-2.082-2.082V67.468a2.08,2.08,0,0,1,2.082-2.082h4.165A2.08,2.08,0,0,1,36.4,67.468v4.165A2.08,2.08,0,0,1,34.316,73.715Zm0-14.576H30.152a2.08,2.08,0,0,1-2.082-2.082V52.892a2.082,2.082,0,0,1,2.082-2.082h4.165A2.082,2.082,0,0,1,36.4,52.892v4.165A2.08,2.08,0,0,1,34.316,59.139Zm0-14.576H30.152a2.08,2.08,0,0,1-2.082-2.082V38.316a2.08,2.08,0,0,1,2.082-2.082h4.165A2.08,2.08,0,0,1,36.4,38.316v4.165A2.08,2.08,0,0,1,34.316,44.563ZM17.658,73.715H13.494a2.08,2.08,0,0,1-2.082-2.082V67.468a2.08,2.08,0,0,1,2.082-2.082h4.165a2.08,2.08,0,0,1,2.082,2.082v4.165A2.08,2.08,0,0,1,17.658,73.715Zm0-14.576H13.494a2.08,2.08,0,0,1-2.082-2.082V52.892a2.082,2.082,0,0,1,2.082-2.082h4.165a2.082,2.082,0,0,1,2.082,2.082v4.165A2.08,2.08,0,0,1,17.658,59.139ZM46.81,65.386h4.165a2.08,2.08,0,0,1,2.082,2.082v4.165a2.08,2.08,0,0,1-2.082,2.082H46.81a2.08,2.08,0,0,1-2.082-2.082V67.468A2.08,2.08,0,0,1,46.81,65.386Z" transform="translate(-1 -5)" fill="#eee" fill-rule="evenodd"/>
</svg>
